<svg width="620" height="182" viewBox="0 0 620 182" fill="none" xmlns="http://www.w3.org/2000/svg">
<path d="M100.64 135V72.024H108.608V135H100.64ZM125.091 135V88.344H131.619L132.291 95.064H132.579C134.819 92.824 137.187 90.968 139.683 89.496C142.179 87.96 145.027 87.192 148.227 87.192C153.155 87.192 156.739 88.76 158.979 91.896C161.283 94.968 162.435 99.48 162.435 105.432V135H154.563V106.488C154.563 102.136 153.859 98.968 152.451 96.984C151.043 95 148.803 94.008 145.731 94.008C143.363 94.008 141.219 94.616 139.299 95.832C137.443 97.048 135.331 98.84 132.963 101.208V135H125.091ZM178.359 135V72.024H196.311C201.047 72.024 205.175 72.6 208.695 73.752C212.215 74.904 214.967 76.856 216.951 79.608C218.935 82.296 219.927 85.944 219.927 90.552C219.927 97.144 217.783 102.04 213.495 105.24C209.207 108.44 203.607 110.04 196.695 110.04H186.327V135H178.359ZM186.327 103.512H195.735C201.239 103.512 205.303 102.488 207.927 100.44C210.615 98.328 211.959 95.032 211.959 90.552C211.959 86.008 210.551 82.872 207.735 81.144C204.983 79.352 200.855 78.456 195.351 78.456H186.327V103.512ZM231.966 135V88.344H238.494L239.166 96.792H239.454C241.054 93.848 243.006 91.512 245.31 89.784C247.614 88.056 250.078 87.192 252.702 87.192C254.558 87.192 256.222 87.512 257.694 88.152L256.158 95.064C255.39 94.808 254.686 94.616 254.046 94.488C253.406 94.36 252.606 94.296 251.646 94.296C249.662 94.296 247.582 95.096 245.406 96.696C243.294 98.296 241.438 101.08 239.838 105.048V135H231.966ZM282.454 136.152C278.678 136.152 275.126 135.192 271.798 133.272C268.534 131.352 265.878 128.568 263.83 124.92C261.846 121.272 260.854 116.888 260.854 111.768C260.854 106.52 261.846 102.072 263.83 98.424C265.878 94.776 268.534 91.992 271.798 90.072C275.126 88.152 278.678 87.192 282.454 87.192C286.294 87.192 289.846 88.152 293.11 90.072C296.374 91.992 298.998 94.776 300.982 98.424C303.03 102.072 304.054 106.52 304.054 111.768C304.054 116.888 303.03 121.272 300.982 124.92C298.998 128.568 296.374 131.352 293.11 133.272C289.846 135.192 286.294 136.152 282.454 136.152ZM282.454 129.624C286.486 129.624 289.718 127.992 292.15 124.728C294.646 121.4 295.894 117.08 295.894 111.768C295.894 106.392 294.646 102.04 292.15 98.712C289.718 95.384 286.486 93.72 282.454 93.72C278.486 93.72 275.254 95.384 272.758 98.712C270.262 102.04 269.014 106.392 269.014 111.768C269.014 117.08 270.262 121.4 272.758 124.728C275.254 127.992 278.486 129.624 282.454 129.624ZM316.341 135V88.344H322.869L323.541 95.064H323.829C325.877 92.824 328.117 90.968 330.549 89.496C332.981 87.96 335.573 87.192 338.325 87.192C341.909 87.192 344.693 87.992 346.677 89.592C348.725 91.128 350.229 93.304 351.189 96.12C353.621 93.496 356.085 91.352 358.581 89.688C361.077 88.024 363.733 87.192 366.549 87.192C371.349 87.192 374.901 88.76 377.205 91.896C379.573 94.968 380.757 99.48 380.757 105.432V135H372.885V106.488C372.885 102.136 372.181 98.968 370.773 96.984C369.365 95 367.189 94.008 364.245 94.008C360.789 94.008 356.885 96.408 352.533 101.208V135H344.661V106.488C344.661 102.136 343.957 98.968 342.549 96.984C341.141 95 338.933 94.008 335.925 94.008C332.469 94.008 328.565 96.408 324.213 101.208V135H316.341ZM395.935 154.68V88.344H402.463L403.135 93.72H403.423C405.535 91.928 407.839 90.392 410.335 89.112C412.895 87.832 415.551 87.192 418.303 87.192C424.319 87.192 428.895 89.368 432.031 93.72C435.167 98.008 436.735 103.768 436.735 111C436.735 116.248 435.775 120.76 433.855 124.536C431.999 128.312 429.535 131.192 426.463 133.176C423.455 135.16 420.159 136.152 416.575 136.152C414.399 136.152 412.223 135.672 410.047 134.712C407.935 133.752 405.791 132.44 403.615 130.776L403.807 138.936V154.68H395.935ZM415.231 129.528C419.071 129.528 422.239 127.896 424.735 124.632C427.295 121.304 428.575 116.76 428.575 111C428.575 105.88 427.615 101.752 425.695 98.616C423.839 95.416 420.703 93.816 416.286 93.816C414.303 93.816 412.287 94.36 410.239 95.448C408.255 96.536 406.111 98.104 403.807 100.152V124.632C405.919 126.424 407.967 127.704 409.951 128.472C411.935 129.176 413.695 129.528 415.231 129.528ZM462.279 136.152C457.287 136.152 453.799 134.712 451.815 131.832C449.895 128.952 448.935 125.208 448.935 120.6V94.776H442.023V88.824L449.319 88.344L450.279 75.288H456.903V88.344H469.479V94.776H456.903V120.696C456.903 123.576 457.415 125.816 458.439 127.416C459.527 128.952 461.415 129.72 464.103 129.72C464.935 129.72 465.831 129.592 466.791 129.336C467.751 129.016 468.615 128.728 469.383 128.472L470.919 134.424C469.639 134.872 468.231 135.256 466.695 135.576C465.223 135.96 463.751 136.152 462.279 136.152ZM510.863 99.768L507.887 109.368H526.799L523.823 99.768C522.671 96.248 521.583 92.76 520.559 89.304C519.535 85.784 518.511 82.2 517.487 78.552H517.103C516.143 82.2 515.151 85.784 514.127 89.304C513.103 92.76 512.015 96.248 510.863 99.768ZM491.663 135L512.975 72.024H521.999L543.311 135H534.767L528.815 115.8H505.871L499.823 135H491.663ZM552.234 135V72.024H560.202V135H552.234Z" fill="white"/>
<path d="M83.7358 107.648L15.1278 142.591V128.955L67.7557 103.599L67.3295 104.452V102.321L67.7557 103.173L15.1278 77.8182V64.1818L83.7358 99.125V107.648ZM166.846 146V157.719H98.6639V146H166.846Z" fill="white"/>
</svg>
